<?xml version="1.0" encoding="UTF-8" standalone="no"?>
<!-- Created with Inkscape (http://www.inkscape.org/) -->

<svg
   width="1024mm"
   height="1024mm"
   viewBox="0 0 1024 1024"
   version="1.1"
   id="svg1"
   inkscape:version="1.4.2 (ebf0e940d0, 2025-05-08)"
   sodipodi:docname="krab_logo_monochrome.svg"
   inkscape:export-filename="../5baeafed/.png"
   inkscape:export-xdpi="25.4"
   inkscape:export-ydpi="25.4"
   xmlns:inkscape="http://www.inkscape.org/namespaces/inkscape"
   xmlns:sodipodi="http://sodipodi.sourceforge.net/DTD/sodipodi-0.dtd"
   xmlns="http://www.w3.org/2000/svg"
   xmlns:svg="http://www.w3.org/2000/svg">
  <sodipodi:namedview
     id="namedview1"
     pagecolor="#ffffff"
     bordercolor="#000000"
     borderopacity="0.25"
     inkscape:showpageshadow="2"
     inkscape:pageopacity="0.0"
     inkscape:pagecheckerboard="0"
     inkscape:deskcolor="#d1d1d1"
     inkscape:document-units="mm"
     inkscape:zoom="0.12661248"
     inkscape:cx="1141.2777"
     inkscape:cy="2736.697"
     inkscape:window-width="1920"
     inkscape:window-height="1011"
     inkscape:window-x="0"
     inkscape:window-y="0"
     inkscape:window-maximized="1"
     inkscape:current-layer="g3" />
  <defs
     id="defs1">
    <inkscape:path-effect
       effect="fill_between_many"
       method="originald"
       linkedpaths="#g3,0,1|"
       id="path-effect1" />
  </defs>
  <g
     inkscape:label="Layer 1"
     inkscape:groupmode="layer"
     id="layer1" />
  <g
     id="g3"
     transform="matrix(1.0293547,0,0,1.0293547,-15.202571,171.49049)"
     inkscape:label="logo">
    <path
       id="path4"
       style="baseline-shift:baseline;display:inline;overflow:visible;vector-effect:none;enable-background:accumulate;stop-color:#000000"
       d="m 404.62297,104.82818 c -20.10474,0 -36.68365,16.5789 -36.68365,36.68364 v 29.77927 c 0,20.10473 16.57891,36.68365 36.68365,36.68365 20.10473,0 36.68365,-16.57892 36.68365,-36.68365 v -29.77927 c 0,-20.10474 -16.57892,-36.68364 -36.68365,-36.68364 z"
       inkscape:label="left_eye" />
    <path
       id="path6"
       style="baseline-shift:baseline;display:inline;overflow:visible;vector-effect:none;enable-background:accumulate;stop-color:#000000"
       d="m 618.01928,104.03146 c -20.10474,0 -36.68315,16.57841 -36.68315,36.68314 v 29.77977 c 0,20.10474 16.57841,36.68315 36.68315,36.68315 20.10474,0 36.68365,-16.57841 36.68365,-36.68315 V 140.7146 c 0,-20.10473 -16.57891,-36.68314 -36.68365,-36.68314 z"
       inkscape:label="right_eye" />
    <path
       id="path8"
       style="baseline-shift:baseline;display:inline;overflow:visible;vector-effect:none;enable-background:accumulate;stop-color:#000000"
       inkscape:label="body"
       d="m 283.90997,173.16014 c -2.29579,0 -4.57735,0.0622 -6.84264,0.18474 -2.7905,15.55962 -7.8087,31.59574 -16.00313,47.35425 -19.86829,38.20822 -60.88997,79.10746 -101.89802,101.15702 v 201.73572 c 0,68.87733 55.86645,124.74428 124.74379,124.74428 h 460.1664 c 68.87734,0 124.74579,-55.86695 124.74579,-124.74428 V 326.66005 c -41.77226,-21.86358 -84.0209,-64.232 -104.22442,-103.7013 -8.47654,-16.55966 -13.53045,-33.4213 -16.22603,-49.72582 -1.42593,-0.0483 -2.85768,-0.0728 -4.29534,-0.0728 z m 431.80285,61.72729 h 26.37903 c 11.36642,0 20.51686,9.15043 20.51686,20.51685 0,11.36642 -9.15044,20.51736 -20.51686,20.51736 h -26.37903 c -11.36642,0 -20.51686,-9.15094 -20.51686,-20.51736 0,-11.36642 9.15044,-20.51685 20.51686,-20.51685 z M 513.99417,251.0994 c 87.95026,0 158.91378,70.96603 158.91378,158.91629 0,87.95027 -70.96352,158.91378 -158.91378,158.91378 -87.95026,0 -158.91629,-70.96351 -158.91629,-158.91378 0,-87.95026 70.96603,-158.91629 158.91629,-158.91629 z" />
    <path
       id="path1-2"
       style="fill:#000000;fill-opacity:1;stroke:none;stroke-width:21.0781;stroke-dasharray:none;stroke-opacity:1"
       inkscape:label="lens"
       d="M 513.99317 291.89164 A 118.44519 118.44519 0 0 0 395.54832 410.33699 A 118.44519 118.44519 0 0 0 513.99317 528.78183 A 118.44519 118.44519 0 0 0 632.43851 410.33699 A 118.44519 118.44519 0 0 0 513.99317 291.89164 z M 477.82259 329.81379 A 32.953308 32.953308 0 0 1 494.29913 334.22862 A 32.953308 32.953308 0 0 1 506.36084 379.24391 A 32.953308 32.953308 0 0 1 461.34605 391.30563 A 32.953308 32.953308 0 0 1 449.28434 346.29083 A 32.953308 32.953308 0 0 1 477.82259 329.81379 z " />
    <path
       id="path12"
       style="baseline-shift:baseline;display:inline;overflow:visible;vector-effect:none;enable-background:accumulate;stop-color:#000000"
       inkscape:label="left_claw"
       d="m 145.98445,35.115137 c -6.97566,1.072117 -16.37068,3.449178 -27.16019,8.804558 C 96.108508,55.194668 68.213871,79.286796 49.175984,134.28514 30.18819,189.13876 36.98382,230.05385 48.080058,257.70909 c 10.988183,27.38594 25.701143,40.84412 25.988456,41.10551 0.194428,0.15492 27.262956,21.68469 49.300606,15.32037 39.81353,-11.4979 97.83123,-62.4624 118.99406,-103.16012 25.26129,-48.5794 15.61243,-101.60317 8.14841,-127.90856 -8.13204,9.445993 -19.09614,21.97541 -31.71258,35.67608 -11.83104,12.84777 -24.50773,26.04495 -36.10179,36.86137 -11.59407,10.81641 -21.09547,19.22282 -31.21457,23.15802 -3.54253,1.37765 -8.55613,1.72524 -12.6797,-0.29871 -4.12356,-2.02395 -6.43993,-5.44384 -7.80703,-8.45514 -2.73419,-6.0226 -3.0922,-12.0738 -3.1678,-19.29894 -0.15132,-14.45026 2.24821,-33.13549 5.40835,-52.189271 4.52938,-27.309526 9.59161,-49.841089 12.74798,-63.404562 z" />
    <path
       id="path14"
       style="baseline-shift:baseline;display:inline;overflow:visible;vector-effect:none;enable-background:accumulate;stop-color:#000000"
       inkscape:label="right_claw"
       d="m 879.12878,35.623189 c 3.12545,13.6358 8.17893,36.464017 12.69527,64.126979 3.13957,19.230152 5.52125,38.088722 5.37119,52.646112 -0.075,7.2787 -0.43268,13.35775 -3.13064,19.39483 -1.34897,3.01853 -3.62347,6.45696 -7.76385,8.52141 -4.14038,2.06445 -9.22562,1.71459 -12.77911,0.31076 -10.11765,-3.99708 -19.53212,-12.48201 -31.05492,-23.40251 -11.5228,-10.92049 -24.12128,-24.24217 -35.8789,-37.21279 -12.38434,-13.662 -23.27877,-26.301251 -31.34559,-35.814638 -7.41957,26.643968 -16.93929,80.135528 8.14841,129.146568 21.0562,41.13508 78.74844,92.56489 118.21893,104.14459 21.75235,6.38159 48.61222,-15.28185 48.81213,-15.44337 0.28234,-0.26081 14.91084,-13.84732 25.84588,-41.53324 11.0413,-27.95494 17.80103,-69.34581 -1.08388,-124.76788 C 956.24989,80.174525 928.50413,55.848466 905.96265,44.482468 895.29937,39.105769 886.02872,36.709327 879.12878,35.623189 Z" />
  </g>
</svg>
